<svg xmlns="http://www.w3.org/2000/svg" width="100pt" height="100pt" fill="#777" viewBox="0 0 100 100"><path d="M87.5 0h-75c-1.25 0-2.082.832-2.082 2.082v95.832c0 1.25.832 2.082 2.082 2.082h75c1.25 0 2.082-.832 2.082-2.082V2.082C89.582.832 88.75 0 87.5 0zm-2.082 95.832H14.582V4.168h70.832z"/><path d="M22.5 29.375h55c1.25 0 2.082-.832 2.082-2.082V11.457c0-1.25-.832-2.082-2.082-2.082h-55c-1.25 0-2.082.832-2.082 2.082v15.832c0 1.254 1.04 2.086 2.082 2.086zm2.082-15.832h50.832v11.668l-50.832-.004zM77.5 35.832H54.375c-1.25 0-2.082.832-2.082 2.082v30.832c0 1.25.832 2.082 2.082 2.082H77.5c1.25 0 2.082-.832 2.082-2.082V37.918c0-1.25-1.04-2.086-2.082-2.086zm-2.082 30.625H56.461L56.457 40h18.957zM22.5 40h23.125c1.25 0 2.082-.832 2.082-2.082s-.832-2.082-2.082-2.082L22.5 35.832c-1.25 0-2.082.832-2.082 2.082 0 1.043 1.04 2.086 2.082 2.086zm0 10.625h23.125c1.25 0 2.082-.832 2.082-2.082s-.832-2.082-2.082-2.082L22.5 46.457c-1.25 0-2.082.832-2.082 2.082 0 1.043 1.04 2.086 2.082 2.086zm0 10.418h23.125c1.25 0 2.082-.832 2.082-2.082s-.832-2.082-2.082-2.082L22.5 56.875c-1.25 0-2.082.832-2.082 2.082s1.04 2.086 2.082 2.086zm0 10.625h23.125c1.25 0 2.082-.832 2.082-2.082s-.832-2.082-2.082-2.082L22.5 67.5c-1.25 0-2.082.832-2.082 2.082s1.04 2.086 2.082 2.086zm0 9.582h55c1.25 0 2.082-.832 2.082-2.082s-.832-2.082-2.082-2.082l-55-.004c-1.25 0-2.082.832-2.082 2.082 0 1.254 1.04 2.086 2.082 2.086zm0 8.957h55c1.25 0 2.082-.832 2.082-2.082s-.832-2.082-2.082-2.082h-55c-1.25 0-2.082.832-2.082 2.082s1.04 2.082 2.082 2.082z"/></svg>