<svg xmlns="http://www.w3.org/2000/svg" width="100pt" height="100pt" fill="#777" viewBox="0 0 100 100"><path d="M77.609 96.633H22.371c-6.52 0-11.824-5.313-11.824-11.84V15.191c0-6.52 5.305-11.824 11.824-11.824h55.238c6.531 0 11.84 5.305 11.84 11.824v69.602c.004 6.527-5.309 11.84-11.84 11.84zM22.371 7.039c-4.496 0-8.152 3.656-8.152 8.152v69.602c0 4.504 3.656 8.172 8.152 8.172h55.238c4.504 0 8.172-3.664 8.172-8.172V15.191c0-4.496-3.664-8.152-8.172-8.152z"/><path d="M28.172 21.121h43.652v1.469H28.172zm0 11.945h43.652v1.469H28.172zm0 12.02h43.652v1.469H28.172zm43.933 30.769c-1.617-.324-3.04-2.89-3.086-4.758-.016-.543.086-1.011.293-1.336 1-1.644 2.027-4.125-.648-6.695-1.118-1.07-2.395-2.277-4.23-2.277-1.06 0-2.071.398-3.114 1.234-.102.086-.352.176-.867.309l-.22.058-.03-.015c-2.028-.16-4.684-2.055-4.875-2.79-.325-1.292-1.086-4.273-4.832-4.273h-.97c-3.831 0-4.609 3.215-4.859 4.274-.234.82-2.953 2.628-4.875 2.789l-.03.015-.41-.101c-.31-.086-.571-.16-.692-.25-1.028-.852-2.04-1.25-3.086-1.25-1.793 0-3.04 1.16-4.125 2.187l-.153.149c-2.613 2.539-1.585 5.023-.57 6.668.352.558.442 1.851-.219 3.363-.586 1.41-1.629 2.496-2.613 2.703-3.715.793-3.906 3.508-3.98 4.54l.015 2.16c.176 2.394 1.512 3.863 3.965 4.331.969.207 1.984 1.25 2.613 2.672.043.086.075.16.102.235h3.82c-.117-.528-.324-1.086-.574-1.688-1.117-2.555-3.086-4.348-5.242-4.8-.883-.176-1-.282-1.043-.883V80.53c.043-.777.16-.883 1.07-1.086 2.172-.453 4.125-2.262 5.227-4.844 1.058-2.48 1.043-4.992-.043-6.71-.75-1.235-.692-1.454.086-2.204l.132-.117c.82-.765 1.262-1.133 1.543-1.133.059 0 .293.032.72.383.734.649 1.616.867 2.26 1.027l.06.016a.365.365 0 0 0 .175.043l.074.031.336.133h.325c3.203-.043 8.004-2.746 8.695-5.594.324-1.351.559-1.511 1.305-1.511h1.027c.691 0 .883.148 1.234 1.527.735 2.836 5.508 5.535 8.664 5.578h.336l.293-.117a.96.96 0 0 1 .176-.043c.059-.016.117-.031.176-.059.66-.16 1.5-.383 2.219-.984.468-.399.703-.426.777-.426.207 0 .559.149 1.719 1.32.703.649.777.883.043 2.102-.574.91-.867 2.07-.836 3.348.086 3.379 2.406 7.488 6.008 8.238.894.191 1.011.293 1.07.91v1.922c-.016.074-.016.117-.016.16s-.015.102-.015.16c-.086.399-.25.559-1.059.704-2.16.453-4.113 2.261-5.2 4.843a8.704 8.704 0 0 0-.558 1.645h3.82c.032-.074.06-.149.087-.219.617-1.426 1.617-2.48 2.554-2.687 2.82-.528 3.688-2.247 3.922-3.598.059-.293.086-.543.102-.895V80.25c-.051-.899-.258-3.602-3.973-4.395z"/><path d="M62.367 80.469a12.193 12.193 0 0 0-1.043-4.023c-2.012-4.45-6.445-7.36-11.32-7.403-6.477.043-11.82 5.008-12.395 11.543v1.72a12.634 12.634 0 0 0 3.453 7.562h2.277c-2.406-1.868-3.949-4.625-4.214-7.621V80.66c.515-5.711 5.183-10.047 10.883-10.102 4.273.03 8.164 2.586 9.941 6.504a11.18 11.18 0 0 1 .91 3.464l.016 1.586c-.281 3.098-1.82 5.902-4.23 7.754h2.261c1.984-2.055 3.215-4.773 3.496-7.664z"/></svg>