<svg xmlns="http://www.w3.org/2000/svg" width="100pt" height="100pt" fill="#777" viewBox="0 0 100 100"><path d="M66.57 40.375c-1.117 0-2.21.113-3.281.285V8.418c0-4.137-3.364-7.5-7.5-7.5H19.992a7.507 7.507 0 0 0-7.5 7.5v83.164c0 4.137 3.363 7.5 7.5 7.5h35.797c4.136 0 7.5-3.363 7.5-7.5v-9.46a20.66 20.66 0 0 0 3.281.284c11.547 0 20.938-9.421 20.938-21 0-11.594-9.39-21.03-20.938-21.03zm-1.566 37.766c-3.395-2.188-5.946-5.414-7.383-9.23h7.383zm-8.258-12.234a21.352 21.352 0 0 1 .054-9h8.204v9zm-8.11-4.5c0-1.559.22-3.059.59-4.5h4.371a24.62 24.62 0 0 0-.445 4.61c0 1.503.145 2.968.402 4.39h-4.328a17.988 17.988 0 0 1-.59-4.5zm9.063-7.5c1.46-3.805 3.996-7.05 7.305-9.219v9.219zm10.445-9.219c3.305 2.172 5.844 5.414 7.305 9.219h-7.305zM54.37 53.907h-4.09a18.048 18.048 0 0 1 9.848-9.309c-2.61 2.54-4.586 5.739-5.758 9.309zm-.074 15c1.132 3.543 3.07 6.695 5.668 9.219a18.04 18.04 0 0 1-9.68-9.219zm13.848 9.234v-9.23h7.382c-1.44 3.816-3.992 7.039-7.382 9.23zm0-12.234v-9h8.203c.328 1.489.508 3.032.508 4.61 0 1.508-.16 2.976-.454 4.39zm11.406-9h4.367c.371 1.442.59 2.946.59 4.5s-.219 3.059-.59 4.5h-4.324a24.7 24.7 0 0 0 .402-4.39c0-1.57-.16-3.11-.445-4.61zm3.312-3h-4.09c-1.172-3.57-3.148-6.77-5.757-9.308a18.06 18.06 0 0 1 9.847 9.308zM46.355 6.813h.75a1.5 1.5 0 0 1 0 3h-.75a1.5 1.5 0 0 1 0-3zm-15.5 0h10.75a1.5 1.5 0 0 1 0 3h-10.75a1.5 1.5 0 0 1 0-3zm7.035 89.051a4.45 4.45 0 1 1 .001-8.899 4.45 4.45 0 0 1 0 8.9zm20.906-11.57H16.984v-68.46h41.812v26.065c-7.703 3.11-13.16 10.676-13.16 19.512 0 8.82 5.461 16.38 13.16 19.48zm14.383-6.168c2.602-2.523 4.54-5.675 5.668-9.218h4.008a18.034 18.034 0 0 1-9.676 9.218z"/></svg>