<svg xmlns="http://www.w3.org/2000/svg" width="100pt" height="100pt" fill="#777" viewBox="0 0 100 100"><path d="M11.668 65H8.332v33.332c0 .922.746 1.668 1.668 1.668h28.332v-3.332H11.668zm0-61.668h60v15c0 .922.746 1.668 1.668 1.668h15v46.668h3.332V18.332c0-.035-.02-.066-.02-.102a1.816 1.816 0 0 0-.085-.433c-.02-.055-.032-.106-.055-.156a1.677 1.677 0 0 0-.328-.489L74.512.484a1.677 1.677 0 0 0-.489-.328c-.05-.023-.101-.035-.152-.054a1.552 1.552 0 0 0-.437-.086C73.398.019 73.367 0 73.332 0H10c-.922 0-1.668.746-1.668 1.668v26.668h3.332zm74.309 13.336H75V5.691z"/><path d="M16.668 8.332H20v3.332h-3.332zm0 6.668H40v3.332H16.668zm0 6.668H40V25H16.668zm6.664-13.336h3.332v3.332h-3.332zm33.336 50V45.687l9.512-9.512a1.667 1.667 0 0 0 .363-1.816A1.674 1.674 0 0 0 65 33.332H1.668C.746 33.332 0 34.078 0 35v23.332C0 59.253.746 60 1.668 60H55c.922 0 1.668-.746 1.668-1.668zM53.332 45v11.668h-50v-20h57.645l-7.156 7.156A1.655 1.655 0 0 0 53.333 45zm45 28.332H36.668c-.648 0-1.234.375-1.508.96a1.675 1.675 0 0 0 .227 1.774l7.945 9.536v12.73c0 .921.746 1.668 1.668 1.668h53.332c.922 0 1.668-.747 1.668-1.668V75c0-.922-.746-1.668-1.668-1.668zm-1.664 23.336h-50V85c0-.39-.137-.77-.387-1.066l-6.055-7.266h56.441z"/><path d="M6.668 41.668H10V45H6.668zm6.664 0h3.332V45h-3.332zm6.668 0h30V45H20zm-6.668 6.664H50v3.332H13.332zm43.336 33.336h36.668V85H56.668zM50 88.332h3.332v3.332H50zm6.668 0H60v3.332h-3.332zm6.664 0h30v3.332h-30zM70 36.668h13.332V40H70zm-3.332 6.664h16.668v3.332H66.668zM60 50h23.332v3.332H60zm0 6.668h23.332V60H60zM15 90h3.332v3.332H15zm6.668 0H25v3.332h-3.332zM15 83.332h3.332v3.332H15z"/></svg>