<svg xmlns="http://www.w3.org/2000/svg" width="100pt" height="100pt" fill="#777" viewBox="0 0 100 100"><path d="M88.34 31.191L85.559 34a40.303 40.303 0 0 1 7.965 27.078 40.278 40.278 0 0 1-11.746 25.664 40.293 40.293 0 0 1-25.7 11.668 43.51 43.51 0 0 1-2.738.09 40.162 40.162 0 0 1-29.93-13.29 2.5 2.5 0 0 1 3.711-3.351 35.322 35.322 0 0 0 33.227 10.94 35.32 35.32 0 0 0 19.962-57.41 2.504 2.504 0 0 1 .141-3.39l4.36-4.36a1.77 1.77 0 0 0-2.5-2.5l-4.532 4.532h.004a2.5 2.5 0 0 1-3.27.227 35.235 35.235 0 0 0-17.183-6.82 2.492 2.492 0 0 1-2.227-2.477v-8.063a2.498 2.498 0 0 1 .715-1.793 2.513 2.513 0 0 1 1.785-.746h2.29a1.77 1.77 0 0 0 0-3.539H46.77a1.77 1.77 0 0 0 0 3.54h2.29a2.496 2.496 0 0 1 2.499 2.5v8.1c0 1.27-.957 2.337-2.219 2.477A35.351 35.351 0 0 0 28.06 33.51a2.505 2.505 0 0 1-3.544.035A2.51 2.51 0 0 1 24.481 30a40.414 40.414 0 0 1 22.078-11.57V15a6.766 6.766 0 0 1-6.152-6.848A6.769 6.769 0 0 1 46.77 1.5h13.121a6.769 6.769 0 0 1 6.364 6.652A6.769 6.769 0 0 1 60.102 15v3.39a40.242 40.242 0 0 1 15.63 6.211l3-3a6.769 6.769 0 1 1 9.577 9.57zm-82 14.18a2.498 2.498 0 0 0 2.5 2.5h17.359a2.5 2.5 0 1 0 0-5H8.851a2.497 2.497 0 0 0-2.5 2.488zm28.422 12.117a2.507 2.507 0 0 0-2.5-2.5H14.91a2.5 2.5 0 1 0 0 5h17.352a2.498 2.498 0 0 0 2.5-2.5zM8.852 72.121H26.2a2.5 2.5 0 1 0 0-5H8.852a2.5 2.5 0 1 0 0 5zM67.2 47.84l-6.41 6.41a8.445 8.445 0 0 1-2.465 10.738 8.44 8.44 0 0 1-10.984-.828 8.44 8.44 0 0 1-.828-10.984 8.445 8.445 0 0 1 10.738-2.465l6.41-6.41a2.504 2.504 0 0 1 3.54 0 2.504 2.504 0 0 1 0 3.54zM56.762 58.18a3.43 3.43 0 1 0-3.434 3.43 3.443 3.443 0 0 0 3.434-3.43zm-3.434 29.75a29.757 29.757 0 0 0 24.773-13.199 29.748 29.748 0 0 0 2.778-27.93A29.75 29.75 0 0 0 59.19 28.985a29.759 29.759 0 0 0-26.863 8.144 2.509 2.509 0 0 0 0 3.543c.98.977 2.562.977 3.543 0A24.759 24.759 0 0 1 53.387 33.4 24.774 24.774 0 0 1 78.17 58.172a24.775 24.775 0 0 1-24.785 24.77 24.774 24.774 0 0 1-17.515-7.27 2.504 2.504 0 1 0-3.543 3.54 29.69 29.69 0 0 0 21 8.718z"/></svg>