<svg xmlns="http://www.w3.org/2000/svg" width="100pt" height="100pt" fill="#777" stroke="#fff" viewBox="0 0 100 100"><path d="M96.875 53.125H3.125a3.124 3.124 0 1 1 0-6.25h93.75a3.124 3.124 0 1 1 0 6.25z"/><path d="M50 100a3.124 3.124 0 0 1-3.125-3.125V3.125a3.124 3.124 0 1 1 6.25 0v93.75A3.124 3.124 0 0 1 50 100z"/><path d="M50.367 37.543c-12.438 0-24.945-5.418-37.441-16.262a3.125 3.125 0 0 1-.313-4.41 3.124 3.124 0 0 1 4.41-.313c22.5 19.527 44.106 19.586 66.056.188a3.126 3.126 0 0 1 4.136 4.687c-12.148 10.738-24.465 16.11-36.848 16.11z"/><path d="M50 100C22.43 100 0 77.57 0 50S22.43 0 50 0s50 22.43 50 50-22.43 50-50 50zm0-93.75C25.875 6.25 6.25 25.875 6.25 50S25.875 93.75 50 93.75 93.75 74.125 93.75 50 74.125 6.25 50 6.25z"/><path d="M85.023 84.203c-.727 0-1.457-.25-2.047-.766-22.492-19.523-44.098-19.586-66.055-.191a3.128 3.128 0 0 1-4.414-.273 3.12 3.12 0 0 1 .273-4.41c24.367-21.54 49.367-21.489 74.285.152a3.12 3.12 0 0 1 .313 4.406 3.086 3.086 0 0 1-2.356 1.082z"/><path d="M50 100a3.13 3.13 0 0 1-2.152-.86c-17.102-16.28-25.84-32.804-25.973-49.116-.137-16.59 8.613-33.141 26.008-49.195a3.127 3.127 0 0 1 4.414.18 3.12 3.12 0 0 1-.18 4.413C36.074 20.232 28 35.22 28.125 49.973c.121 14.551 8.203 29.57 24.027 44.637a3.124 3.124 0 0 1 .11 4.418 3.102 3.102 0 0 1-2.262.973z"/><path d="M50 100a3.1 3.1 0 0 1-2.297-1.008 3.12 3.12 0 0 1 .18-4.414C63.926 79.77 72 64.781 71.875 50.023c-.117-14.555-8.207-29.57-24.027-44.64a3.124 3.124 0 0 1-.11-4.419 3.12 3.12 0 0 1 4.418-.11c17.098 16.286 25.836 32.81 25.97 49.122.136 16.59-8.614 33.14-26.009 49.195a3.104 3.104 0 0 1-2.117.828z"/></svg>