<svg xmlns="http://www.w3.org/2000/svg" fill-rule="evenodd" stroke-linejoin="round" stroke-miterlimit="1.414" clip-rule="evenodd" viewBox="0 0 512 512"><path fill="#fff" fill-rule="nonzero" d="M364.887 223.034c-3.195 0-6.337.239-9.44.604-13.569-56.608-64.478-98.7-125.252-98.7-60.779 0-111.68 42.096-125.268 98.7-3.083-.365-6.23-.604-9.425-.604-44.068 0-79.797 35.72-79.797 79.793 0 44.062 35.729 79.787 79.802 79.787H364.89c44.068 0 79.797-35.725 79.797-79.787-.003-44.073-35.731-79.793-79.8-79.793z"/><path fill="#0083c0" fill-rule="nonzero" d="M443.809 200.274c-1.773 0-3.521.132-5.236.336-7.55-31.452-35.832-54.836-69.59-54.836-33.776 0-62.05 23.384-69.594 54.836a44.347 44.347 0 0 0-5.236-.336c-24.489 0-44.34 19.848-44.34 44.331 0 24.483 19.847 44.33 44.34 44.33h149.66c24.483 0 44.33-19.847 44.33-44.33 0-24.483-19.847-44.33-44.334-44.33z"/><path fill="#fff" fill-rule="nonzero" d="M327.818 217.17c-.75 0-1.52-.093-2.28-.277-5.23-1.252-8.454-6.507-7.202-11.738 5.63-23.496 26.46-39.899 50.647-39.899 5.378 0 9.74 4.364 9.74 9.74s-4.364 9.74-9.74 9.74c-15.142 0-28.18 10.263-31.702 24.957-1.07 4.472-5.065 7.477-9.463 7.477z"/></svg>