<svg xmlns="http://www.w3.org/2000/svg" fill-rule="evenodd" stroke-linejoin="round" stroke-miterlimit="1.414" clip-rule="evenodd" viewBox="0 0 512 512"><path fill="#0083c0" fill-rule="nonzero" d="M255.939 511.938C114.811 511.938 0 397.127 0 255.999S114.811.061 255.939.061 511.878 114.872 511.878 256 397.066 511.938 255.939 511.938z"/><path fill="#fff" fill-rule="nonzero" d="M135.62 383.997h-13.724c-8.957 0-16.215-7.473-16.215-16.695 0-9.222 7.258-16.695 16.215-16.695h13.723c22.581 0 42.037-15.788 47.305-38.396l40.992-175.866c8.783-37.679 41.203-63.993 78.838-63.993h13.724c8.956 0 16.214 7.473 16.214 16.695 0 9.222-7.258 16.695-16.214 16.695h-13.724c-22.581 0-42.037 15.788-47.305 38.396l-40.992 175.866c-8.784 37.678-41.202 63.993-78.838 63.993z"/><path fill="#fff" fill-rule="nonzero" d="M171.29 233.466h-15.34c-5.949 0-9.727-7.263-9.727-16.224 0-8.962 3.778-16.224 9.726-16.224h139.976c5.948 0 10.767 7.262 10.767 16.224 0 8.961-4.82 16.224-10.767 16.224H171.29zm174.364 55.251c-6.521-6.521-17.087-6.521-23.608 0l-21.587 21.587-21.586-21.587c-6.521-6.521-17.087-6.521-23.608 0-6.521 6.516-6.521 17.091 0 23.608l21.587 21.587-21.586 21.586c-6.521 6.516-6.521 17.092 0 23.608a16.642 16.642 0 0 0 11.804 4.892 16.64 16.64 0 0 0 11.804-4.892l21.587-21.587 21.587 21.587a16.642 16.642 0 0 0 11.804 4.892 16.64 16.64 0 0 0 11.804-4.892c6.521-6.516 6.521-17.092 0-23.608l-21.587-21.587 21.587-21.587c6.52-6.516 6.52-17.092-.002-23.607z"/></svg>