<svg xmlns="http://www.w3.org/2000/svg" width="{{ .width }}" height="{{ .height }}" fill="{{ .fill }}" viewBox="0 0 27 32"><path d="M9.28 21.44q.064-.128-.064-.256-.16-.128-.256-.032-.064.128.064.224.16.128.256.064zm-.512-.736q-.096-.128-.224-.096-.096.096 0 .224.128.16.224.096t0-.224zm-.736-.736q.032-.064-.096-.128-.128-.032-.128.032-.064.096.064.16.16.032.16-.064zm.384.416q.032 0 .032-.064t-.064-.096q-.128-.128-.192-.064t.032.192q.096.096.192.032zm1.536 1.344q.032-.128-.16-.192-.16-.064-.224.064t.16.192q.16.064.224-.064zm.736.064q0-.16-.192-.16t-.192.16.192.128.192-.128zm.704-.128q-.032-.128-.224-.096t-.16.16q.032.16.192.096t.192-.16zM22.848 16q0-3.776-2.656-6.464t-6.464-2.688-6.464 2.688T4.576 16q0 2.976 1.76 5.376t4.48 3.296q.32.064.48-.096t.16-.352q0-.928-.032-1.696-.096.032-.256.064t-.64.032-.864-.096-.768-.352-.544-.736q-.416-1.056-1.024-1.312l-.064-.064-.16-.16-.096-.16.064-.128.352-.064q.096 0 .256.032t.544.288.576.64q.288.48.672.736t.768.256.704-.064.512-.16q.128-.864.608-1.248-.896-.096-1.536-.32t-1.312-.704-.992-1.344-.352-2.144q0-1.408.96-2.464-.448-1.088.096-2.4.32-.128.96.128t1.088.512l.448.288q1.056-.288 2.304-.288t2.272.288q.192-.128.512-.32t.992-.448 1.024-.16q.512 1.312.096 2.4.928 1.056.928 2.464 0 1.024-.256 1.792t-.64 1.248-.928.8-1.12.448-1.216.224q.608.544.608 1.696v1.6q0 .896-.032.896 0 .224.16.352t.48.096q2.752-.928 4.512-3.296T22.848 16zm4.576-8.576v17.152q0 2.112-1.504 3.616t-3.648 1.536H5.152q-2.144 0-3.648-1.536T0 24.576V7.424q0-2.112 1.504-3.616t3.648-1.536h17.12q2.144 0 3.648 1.536t1.504 3.616z"/></svg>