<svg xmlns="http://www.w3.org/2000/svg" viewBox="0 0 397.8 535.6"><path fill="none" stroke="#040000" stroke-miterlimit="10" stroke-width="8.917" d="M134.8 30c-23.2 1.7-77 28.8-50.6 95.3 9.2 23.3 105.8 10.4 107-54.7.5-27.1-36-42.1-56.4-40.6zm135.6 242.7c-11.3.5-19.9 23.6-17.1 34.6 1.5 6 13.1 5 11.4 9.7-2.7 7.7 17.6 13.1 21.5 4.8 19.5-41.2-5.4-49.5-15.8-49.1z"/><path fill="none" stroke="#040000" stroke-linecap="round" stroke-linejoin="round" stroke-miterlimit="10" stroke-width="8.917" d="M57.4 476.1c-10.8 1.3-14.5 12.9-11.1 17.6 5.1 7.1 39.9 6.5 46.1-.7-22-8.9-34.4-16.4-34.4-16.4-.2-.2-.4-.4-.6-.5z"/><path fill="none" stroke="#040000" stroke-linecap="round" stroke-linejoin="round" stroke-miterlimit="10" stroke-width="8.917" d="M269.5 522.6c20.1-4 67.9 4 93.2-61.9.7-1.8 1.3-3.6 1.9-5.3 9 .3 20.4-3 23.4-8 4.1-6.9-8.4-11.9-17.7-13.4 10.2-51.5-3.8-102.7-20.9-140.6-22.6-50.2-21.5-107-19.9-116.5 6.8-40.5 1.6-70.9-10.1-93.7 11.4-9.7 35.7-34.5 8.7-48.4-10.9-5.6-25.4 0-44.9 5-1.1.3-1 .9-1.5 1.8C241 14.2 190.5 14 190.5 14S106.9 5.4 66.7 70.5l1.4-5.3s-45.8-8-57.1 40.7c-8.2 35.2 7.8 44.3 18.6 46.6-3.8 23.1-4.8 50.1-1.8 81.6 6.4 68.6-42.1 181.9 28.9 242C69 486.5 136 513.2 206 521.3"/><path fill="none" stroke="#040000" stroke-miterlimit="10" stroke-width="8.917" d="M254.1 505.5c-27.3-5.2-49.3 7.7-46.9 20 2.1 10.7 41.5 8.1 57.3 6 7-1-3.5-24.7-10.4-26z"/><path fill="none" stroke="#03324B" stroke-miterlimit="10" stroke-width="5.487" d="M74.9 166.8c-.3-1.1-.7-2.1-1.1-2.6-3-3.6-18.7 2.5-20.9 3.5-.9.4-1.5 1.9-1.8 4"/><path fill="#040000" d="M308.2 41.4c-19.2 4.3-20.1 14-15.1 16.7 2.9 1.6.8-8.3 13.9-3.9 5.3 1.7-2.5 14.6 12.4.2 7.9-7.7-7-13.9-11.2-13z"/><path fill="none" stroke="#040000" stroke-miterlimit="10" stroke-width="8.231" d="M136.2 29.9C112.7 31.6 58.3 59 85 126.3c9.3 23.5 107 10.5 108.2-55.3.5-27.4-36.4-42.7-57-41.1z"/><path fill="none" stroke="#040000" stroke-miterlimit="10" stroke-width="8.231" d="M75.5 127c-2.2-.4-4.4-.7-6.4-.9-.6 0-1.2.5-1.1 1.1.1.4 0 .8-.2 1.2-3.3 6.4-17.6 22.9-25.3 21.3-.3-.1-.6-.2-.8-.4-2-1.1-4.5.1-4.7 2.3-.8 8.1 1.9 15.7 7.1 18.5 1.8 1 4.2 1.5 7 1.6.3-2.1.9-3.6 1.8-4 2.3-1 17.9-7.2 20.9-3.5.5.6.8 1.5 1.1 2.6 6.5-2.8 11.9-6.5 13.7-10.4 4.9-10.2 7.7-25.4-13.1-29.4zm-24.4 44.8c-.9 5.8.5 16 5.2 17.9 17.6 7.5 20.8-14.4 18.7-22.9"/><path fill="#040000" d="M26.6 88.2c-3.6-.1-7 4.5-9.5 10.6.9-1.6 2-2.9 3-2.5 2 .7 1 6.8-.3 8.5-1.8 2.5-4.7 3.1-4.9.5-2 7.1-2.8 14.7-1.7 18.9.9 3.6 10.2 6.4 14.3-3.7 2.9-7.5 9.8-32-.9-32.3zm83-35.2c-21.9 2-27.2 33-19.1 40.2 4.6 4.1 20.6 8.8 29.2-19.4 2.7-9-2-21.6-10.1-20.8zM99.3 70.6c-2.1 1.6-4.8-.1-5.4-1.3-1.7-3.4 4.2-11.4 7.3-10.6 6.2 1.8.4 10-1.9 11.9zm-52.1 50.7c-15.7 5.4-14.9 31.9-6.4 32.7 9.6.9 26.4-18.5 30.4-26.2 3.1-5.9-17.7-8.6-24-6.5z"/></svg>