<svg xmlns="http://www.w3.org/2000/svg" fill-rule="evenodd" stroke-linecap="round" stroke-linejoin="round" stroke-miterlimit="1.5" clip-rule="evenodd" viewBox="0 0 500 282"><path fill="#c9177e" stroke="#c9177e" stroke-width="4" d="M167.376 132.778c-1.976 30.692-9.989 39.406-17.234 58.774-9.781 19.021-17.04 22.805-22.516 31.46 3.882 3.802 17.164 15.802 31.38 20.899 40.911 7.949 91.255 7.588 125.099 0 28.192-5.458 46.461-1.925 66.753 14.235 1.167-39.623.746-86.87-17.106-125.368"/><path fill="#8cc5e7" fill-rule="nonzero" d="M349.3 44.6c-6.7-13.7-22.9-1.6-27-5.9-21-21.6-46.4-27-66.3-28h-11c-20 .5-45.4 6.3-66.3 28-4.1 4.3-20.4-7.8-27 5.9-7.7 16 15.7 17.6 14.5 24.7-2.3 12.8-.8 31.8 1 50.5 2.8 31.7-20.9 107.6 28.4 138.1 9.3 5.8 34.4 9 56.2 9.5h.2c21.8-.5 43.9-3.7 53.2-9.5 49.4-30.5 25.7-106.4 28.6-138.1 1.7-18.7 3.2-37.7 1-50.5-1.2-7.1 22.2-8.8 14.5-24.7z"/><path fill="#e0dedc" fill-rule="nonzero" d="M285.2 54.3c-33.4 3.9-28.9 38.7-16 50 24 21 49 0 46.2-21.2-2.5-20.4-19.8-30-30.2-28.8z"/><path fill="#111212" d="M287.5 72.9c6.292 0 11.4 5.108 11.4 11.4 0 6.292-5.108 11.4-11.4 11.4-6.292 0-11.4-5.108-11.4-11.4 0-6.292 5.108-11.4 11.4-11.4zm-74.144-.154c6.292 0 11.4 5.108 11.4 11.4 0 6.292-5.108 11.4-11.4 11.4-6.292 0-11.4-5.108-11.4-11.4 0-6.292 5.108-11.4 11.4-11.4z"/><path fill="#fff" d="M284.5 75.8c1.987 0 3.6 1.613 3.6 3.6s-1.613 3.6-3.6 3.6a3.602 3.602 0 0 1-3.6-3.6c0-1.987 1.613-3.6 3.6-3.6zm-68.226-.608c1.987 0 3.6 1.613 3.6 3.6s-1.613 3.6-3.6 3.6a3.602 3.602 0 0 1-3.6-3.6c0-1.987 1.613-3.6 3.6-3.6z"/><path fill="#b8937f" fill-rule="nonzero" d="M250.5 107c-16 2.4-21.7 7-20.5 14.2 2 11.8 39.7 10.5 40.9.6 1-8.5-14.1-15.7-20.4-14.8z"/><path fill-rule="nonzero" d="M240.2 111.8c-2.7 9.8 21.7 8.3 21.1 2-.3-3.7-3.6-8.4-12.3-8.2-3.4.1-7.6 1.6-8.8 6.2z"/><path fill="#e0dedc" fill-rule="nonzero" d="M241 127.7c-.9.4-2.4 10.2 2.2 10.7 3.1.3 11.6 1.3 13.6 0 3.9-2.5 3.5-8.5 1.3-10-3.7-2.4-16.1-1.2-17.1-.7zm-25.4-73.4c33.4 3.9 28.9 38.7 16 50-24 21-49 0-46.2-21.2 2.6-20.4 19.9-30 30.2-28.8z"/><circle cx="71.4" cy="84.3" r="11.4" fill="#111212" transform="translate(142)"/><circle cx="74.4" cy="79.4" r="3.6" fill="#fff" transform="translate(142)"/><path fill="#b8937f" fill-rule="nonzero" d="M335.6 186.7c11 .1 5.6-23.5-1.2-18.8-3.3 2.3-3.9 7.6-3.9 12.1 0 2.5 2 6.6 5.1 6.7zm-170.3 0c-11 .1-5.6-23.5 1.2-18.8 3.3 2.3 3.9 7.6 3.9 12.1 0 2.5-2 6.6-5.1 6.7zm149.4 72.5c-6-8.9-11.4-2-20.1 2.4-4.1 2.1 6.8 9.6 19 4 3.2-1.5 3.1-3.5 1.1-6.4zm-128.5 1c6-8.9 11.4-2 20.1 2.4 4.1 2.1-6.8 9.6-19 4-3.2-1.5-3.1-3.5-1.1-6.4z"/><path fill="#0083c0" fill-rule="nonzero" d="M330.6 47c-.6 2.1 2.1 1.8 3.1 8.3.4 2.4 9-3.5 5.5-7.8-2.9-3.6-8.1-2.6-8.6-.5zm-160.3 0c.6 2.1-2.1 1.8-3.1 8.3-.4 2.4-9-3.5-5.5-7.8 2.8-3.6 8-2.6 8.6-.5z"/><path fill="#ff4088" d="M250.112 158.846l35.328 20.525v40.422l-35.328 20.053-35.27-20.053V179.37l35.27-20.525z"/><path fill="#c9177e" d="M287.053 177.765l.586 1.018v41.603l-.597 1.026-36.35 20.633h-1.162l-36.29-20.634-.597-1.025v-41.602l.586-1.018 36.29-21.118h1.185l36.349 21.117zm-70.013 2.87v37.88l33.073 18.803 33.13-18.805v-37.877l-33.13-19.247-33.073 19.246z"/><path fill="#fff" fill-rule="nonzero" d="M267.265 222.998h-9.631v-19.773h-16.77v19.773h-9.631V176.23h9.631v19.548h16.77V176.23h9.63v46.767z"/><path fill="none" stroke="#c9177e" stroke-width="4" d="M167.376 132.778c17.292 1.627 49.208 5.094 82.624 18.893 33.452-12.226 44.791-18.822 83.752-18.893"/></svg>