<svg xmlns="http://www.w3.org/2000/svg" fill-rule="evenodd" stroke-linecap="round" stroke-linejoin="round" stroke-miterlimit="1.5" clip-rule="evenodd" viewBox="0 0 272 282"><path fill="#c9177e" stroke="#c9177e" stroke-width="4.373" d="M47.808 133.467c-2.16 33.555-10.921 43.082-18.842 64.257-10.694 20.795-18.63 24.932-24.617 34.395 4.244 4.156 18.765 17.276 34.308 22.848 44.727 8.69 99.768 8.296 136.77 0 30.821-5.967 50.795-2.104 72.98 15.563 1.275-43.32.815-94.974-18.702-137.063" class="gopher-cape animated"/><path fill="#8cc5e7" fill-rule="nonzero" d="M246.704 37.063c-7.325-14.979-25.037-1.75-29.52-6.45C194.227 6.996 166.457 1.092 144.7 0h-12.026c-21.866.547-49.636 6.888-72.486 30.612-4.482 4.701-22.303-8.528-29.518 6.45-8.419 17.493 17.164 19.242 15.852 27.005-2.514 13.994-.874 34.766 1.094 55.21 3.06 34.658-22.85 117.639 31.049 150.984 10.168 6.341 37.61 9.84 61.443 10.387h.219c23.833-.547 47.995-4.046 58.163-10.387 54.008-33.345 28.097-116.326 31.268-150.983 1.858-20.445 3.498-41.217 1.093-55.211-1.312-7.763 24.271-9.621 15.853-27.004z"/><path fill="#e0dedc" fill-rule="nonzero" d="M176.624 47.667c-36.516 4.264-31.596 42.31-17.493 54.665 26.24 22.959 53.571 0 50.51-23.178-2.733-22.303-21.647-32.799-33.017-31.487z"/><path fill="#111212" d="M179.138 68.003c6.88 0 12.464 5.584 12.464 12.463 0 6.88-5.585 12.464-12.464 12.464-6.879 0-12.463-5.585-12.463-12.464 0-6.879 5.584-12.463 12.463-12.463zm-81.06-.169c6.878 0 12.463 5.585 12.463 12.464 0 6.879-5.585 12.463-12.463 12.463-6.88 0-12.464-5.584-12.464-12.463 0-6.88 5.585-12.464 12.464-12.464z" class="eyes"/><path fill="#fff" d="M175.859 71.173a3.938 3.938 0 0 1 3.935 3.936 3.938 3.938 0 0 1-3.935 3.936 3.938 3.938 0 0 1-3.936-3.936 3.938 3.938 0 0 1 3.936-3.936zm-74.591-.665a3.938 3.938 0 0 1 3.936 3.936 3.938 3.938 0 0 1-3.936 3.936 3.938 3.938 0 0 1-3.936-3.936 3.938 3.938 0 0 1 3.936-3.936z"/><path fill="#b8937f" fill-rule="nonzero" d="M138.687 105.284c-17.493 2.624-23.725 7.653-22.413 15.525 2.187 12.9 43.404 11.48 44.716.656 1.093-9.293-15.416-17.165-22.303-16.181z"/><path fill-rule="nonzero" d="M127.426 110.532c-2.952 10.714 23.724 9.074 23.068 2.186-.328-4.045-3.936-9.183-13.447-8.965-3.717.11-8.31 1.75-9.621 6.779z"/><path fill="#e0dedc" fill-rule="nonzero" d="M128.3 127.915c-.984.437-2.623 11.151 2.406 11.698 3.389.328 12.682 1.421 14.868 0 4.264-2.733 3.827-9.293 1.422-10.933-4.046-2.624-17.602-1.312-18.696-.765zm-27.77-80.248c36.517 4.264 31.597 42.31 17.493 54.665-26.238 22.959-53.57 0-50.51-23.178 2.843-22.303 21.757-32.799 33.018-31.487z"/><circle cx="71.4" cy="84.3" r="11.4" fill="#111212" class="eyes" transform="translate(20.065 -11.698) scale(1.09329)"/><circle cx="74.4" cy="79.4" r="3.6" fill="#fff" transform="translate(20.065 -11.698) scale(1.09329)"/><path fill="#b8937f" fill-rule="nonzero" d="M231.726 192.419c12.026.11 6.122-25.692-1.312-20.554-3.608 2.515-4.264 8.31-4.264 13.229 0 2.733 2.186 7.216 5.576 7.325zm-186.188 0c-12.026.11-6.122-25.692 1.312-20.554 3.608 2.515 4.264 8.31 4.264 13.229 0 2.733-2.186 7.216-5.576 7.325zm163.338 79.264c-6.56-9.73-12.464-2.187-21.975 2.623-4.483 2.296 7.434 10.496 20.772 4.374 3.499-1.64 3.39-3.827 1.203-6.997zm-140.488 1.093c6.56-9.73 12.464-2.187 21.975 2.624 4.483 2.296-7.434 10.495-20.772 4.373-3.499-1.64-3.39-3.827-1.203-6.997z"/><path fill="#0083c0" fill-rule="nonzero" d="M226.26 39.686c-.657 2.296 2.295 1.968 3.388 9.075.438 2.624 9.84-3.827 6.013-8.528-3.17-3.936-8.855-2.842-9.402-.547zm-175.255 0c.656 2.296-2.296 1.968-3.39 9.075-.437 2.624-9.839-3.827-6.012-8.528 3.06-3.936 8.746-2.842 9.402-.547z"/><path fill="#ff4088" d="M138.262 161.967l38.625 22.44V228.6l-38.625 21.924-38.56-21.924v-44.193l38.56-22.44z" class="gopher-badge animated"/><path fill="#c9177e" d="M178.65 182.65l.64 1.114v45.484l-.652 1.121-39.741 22.558h-1.27L97.95 230.369l-.652-1.121v-45.483l.64-1.113 39.676-23.088h1.295l39.74 23.087zm-76.545 3.138v41.414l36.158 20.558 36.22-20.56v-41.41l-36.22-21.043-36.158 21.041z" class="gopher-badge animated"/><path fill="#fff" fill-rule="nonzero" d="M157.016 232.103h-10.53v-21.617h-18.334v21.617h-10.53v-51.13h10.53v21.372h18.334v-21.372h10.53v51.13z" class="gopher-badge animated"/><path fill="none" stroke="#c9177e" stroke-width="4.373" d="M47.808 133.466c18.905 1.78 53.799 5.57 90.332 20.656 36.573-13.367 48.97-20.578 91.565-20.656" class="gopher-cape animated"/><path fill="#c9177e" d="M100.019 47.558c26.664 0 42.3 15.657 46.31 31.995 4.21 17.149-27.245 31.995-53.908 31.995s-41.11-30.8-41.11-48.458c0-17.658 22.045-15.532 48.708-15.532zm0 15.532c16.051 0 27.45 5.833 27.45 16.463s-11.399 19.26-27.45 19.26c-16.051 0-30.741-13.043-30.741-23.673 0-10.631 14.69-12.05 30.74-12.05z" class="gopher-cape animated"/><path fill="#c9177e" d="M181.097 47.558c25.701 0 41.799-1.971 41.799 15.687s-16.098 48.303-41.799 48.303S134.53 97.21 134.53 79.553s20.866-31.995 46.567-31.995zm-3 15.687c15.36 0 28.779.815 28.779 11.369 0 10.553-13.419 24.06-28.779 24.06-15.361 0-27.832-8.567-27.832-19.121 0-10.554 12.471-16.308 27.832-16.308z" class="gopher-cape animated"/></svg>