<svg xmlns="http://www.w3.org/2000/svg" viewBox="0 0 215.6 281.6"><path fill="#8CC5E7" d="M207.3 44.6c-6.7-13.7-22.9-1.6-27-5.9-21-21.6-46.4-27-66.3-28h-11c-20 .5-45.4 6.3-66.3 28-4.1 4.3-20.4-7.8-27 5.9-7.7 16 15.7 17.6 14.5 24.7-2.3 12.8-.8 31.8 1 50.5C28 151.5 4.3 227.4 53.6 257.9c9.3 5.8 34.4 9 56.2 9.5h.2c21.8-.5 43.9-3.7 53.2-9.5 49.4-30.5 25.7-106.4 28.6-138.1 1.7-18.7 3.2-37.7 1-50.5-1.2-7.1 22.2-8.8 14.5-24.7z"/><path fill="#E0DEDC" d="M143.2 54.3c-33.4 3.9-28.9 38.7-16 50 24 21 49 0 46.2-21.2-2.5-20.4-19.8-30-30.2-28.8z"/><circle cx="145.5" cy="84.3" r="11.4" fill="#111212"/><circle cx="142.5" cy="79.4" r="3.6" fill="#FFF"/><path fill="#B8937F" d="M108.5 107c-16 2.4-21.7 7-20.5 14.2 2 11.8 39.7 10.5 40.9.6 1-8.5-14.1-15.7-20.4-14.8z"/><path d="M98.2 111.8c-2.7 9.8 21.7 8.3 21.1 2-.3-3.7-3.6-8.4-12.3-8.2-3.4.1-7.6 1.6-8.8 6.2z"/><path fill="#E0DEDC" d="M99 127.7c-.9.4-2.4 10.2 2.2 10.7 3.1.3 11.6 1.3 13.6 0 3.9-2.5 3.5-8.5 1.3-10-3.7-2.4-16.1-1.2-17.1-.7zM73.6 54.3c33.4 3.9 28.9 38.7 16 50-24 21-49 0-46.2-21.2 2.6-20.4 19.9-30 30.2-28.8z"/><circle cx="71.4" cy="84.3" r="11.4" fill="#111212"/><circle cx="74.4" cy="79.4" r="3.6" fill="#FFF"/><path fill="#B8937F" d="M193.6 186.7c11 .1 5.6-23.5-1.2-18.8-3.3 2.3-3.9 7.6-3.9 12.1 0 2.5 2 6.6 5.1 6.7zm-170.3 0c-11 .1-5.6-23.5 1.2-18.8 3.3 2.3 3.9 7.6 3.9 12.1 0 2.5-2 6.6-5.1 6.7zm149.4 72.5c-6-8.9-11.4-2-20.1 2.4-4.1 2.1 6.8 9.6 19 4 3.2-1.5 3.1-3.5 1.1-6.4zm-128.5 1c6-8.9 11.4-2 20.1 2.4 4.1 2.1-6.8 9.6-19 4-3.2-1.5-3.1-3.5-1.1-6.4z"/><path fill="#3C89BF" d="M188.6 47c-.6 2.1 2.1 1.8 3.1 8.3.4 2.4 9-3.5 5.5-7.8-2.9-3.6-8.1-2.6-8.6-.5zM28.3 47c.6 2.1-2.1 1.8-3.1 8.3-.4 2.4-9-3.5-5.5-7.8 2.8-3.6 8-2.6 8.6-.5z"/></svg>