<svg xmlns="http://www.w3.org/2000/svg" fill-rule="evenodd" stroke-linejoin="round" stroke-miterlimit="1.414" class="focus-row-icon" clip-rule="evenodd" viewBox="0 0 512 512"><path fill="#f2f2f2" fill-rule="nonzero" d="M466.287 256c0 116.142-94.139 210.281-210.286 210.281-116.134 0-210.286-94.136-210.286-210.281 0-116.147 94.152-210.281 210.286-210.281 116.145 0 210.286 94.134 210.286 210.281z"/><path fill="#0594cb" fill-rule="nonzero" d="M213.597 97.925c18.872 0 34.084 15.217 34.084 34.097v247.923c0 15.58-10.404 28.71-24.694 32.765 0 0-.033.031-.077 0-1.014.282-2.048.486-3.236.709-1.175.266-2.478.422-3.891.484-.681.143-1.462.143-2.186.143-18.099 0-32.228-13.448-33.9-30.666v-.038c-4.78 2.56-10.368 4.093-16.161 4.093-18.778 0-34.094-15.265-34.094-34.155 0-3.996.824-8.036 2.066-11.604-.681 0-1.372.036-2.066.036-18.78 0-34.056-15.222-34.056-34.094 0-8.351 3.003-15.877 7.951-21.837-10.529-5.783-17.636-16.97-17.636-29.798 0-14.287 8.799-26.532 21.268-31.539-5.793-6.121-9.349-14.39-9.349-23.452 0-18.783 15.299-34.066 34.079-34.066h.625a34.984 34.984 0 0 1-1.339-9.551c0-18.775 15.316-34.063 34.097-34.063 5.094 0 10.532 1.219 14.912 3.246 2.586-16.242 16.677-28.633 33.603-28.633z"/><g fill="#0083c0" fill-rule="nonzero"><path d="M175.389 132.019c0 21.102 17.129 38.262 38.221 38.262a4.184 4.184 0 0 0 4.183-4.191c0-2.26-1.874-4.111-4.183-4.111-16.532 0-29.96-13.44-29.96-29.96 0-16.53 13.427-29.975 29.96-29.975 16.512 0 29.957 13.445 29.957 29.975v247.964c0 16.527-13.445 29.973-29.957 29.973-16.532 0-29.96-13.445-29.96-29.973 0-16.52 13.427-29.96 29.96-29.96 2.309 0 4.183-1.851 4.183-4.109a4.187 4.187 0 0 0-4.183-4.193c-21.092 0-38.221 17.157-38.221 38.262 0 21.094 17.129 38.216 38.221 38.216 21.097 0 38.264-17.121 38.264-38.216V132.019c0-21.097-17.17-38.218-38.264-38.218-21.092 0-38.221 17.121-38.221 38.218z"/><path d="M163.565 391.578c-21.117 0-38.223-17.18-38.223-38.287 0-4.452.742-8.868 2.255-13.038.819-2.166 3.195-3.308 5.302-2.506a4.06 4.06 0 0 1 2.504 5.297 30.187 30.187 0 0 0-1.815 10.245c0 16.525 13.443 29.978 29.978 29.978 4.933 0 9.838-1.206 14.134-3.551a4.236 4.236 0 0 1 5.688 1.672c1.068 2.038.34 4.547-1.687 5.609a38.19 38.19 0 0 1-18.136 4.581z"/><path d="M129.463 345.805c-21.105 0-38.198-17.101-38.198-38.188a38.29 38.29 0 0 1 8.868-24.492c1.423-1.741 4.065-1.961 5.806-.509 1.738 1.477 2.02 4.081.53 5.801-4.483 5.404-6.968 12.211-6.968 19.203 0 16.515 13.448 29.96 29.965 29.96.625 0 1.172 0 1.715-.115 15.852-.883 28.25-14.011 28.25-29.844 0-2.266 1.861-4.116 4.137-4.116 2.309 0 4.16 1.853 4.16 4.116 0 20.227-15.821 36.961-35.93 38.141-.702.025-1.526.043-2.335.043z"/><path d="M214.24 311.734c-2.335 0-4.188-1.861-4.188-4.116 0-11.717-9.444-21.176-21.169-21.176-11.709 0-21.158 9.459-21.158 21.176 0 2.258-1.853 4.116-4.16 4.116-2.276 0-4.137-1.861-4.137-4.116 0-16.233 13.23-29.476 29.455-29.476 16.238 0 29.466 13.243 29.466 29.476.002 2.257-1.851 4.116-4.109 4.116zm-94.461-17.536c-21.018 0-38.195-17.119-38.195-38.2 0-21.117 17.175-38.277 38.195-38.277 21.11 0 38.282 17.16 38.282 38.277 0 2.243-1.866 4.119-4.145 4.119-2.301 0-4.18-1.876-4.18-4.119 0-16.532-13.43-29.97-29.96-29.97-16.504 0-29.906 13.437-29.906 29.97 0 16.515 13.402 29.942 29.906 29.942 2.327 0 4.191 1.866 4.191 4.139.002 2.314-1.861 4.119-4.188 4.119z"/><path d="M106.958 228.559c-1.068 0-2.186-.461-3.023-1.329-6.71-7.122-10.429-16.412-10.429-26.235 0-21.107 17.175-38.211 38.272-38.211.238 0 .566 0 .86.008 18.14.261 33.728 12.357 35.958 28.116 1.531 10.806 8.694 21.714 21.194 21.714a4.156 4.156 0 0 1 4.163 4.183c0 2.253-1.846 4.122-4.163 4.122-15.165 0-26.962-11.61-29.386-28.849-1.853-12.897-15.764-20.844-28.099-21.038l-.53-.008c-16.522 0-29.972 13.44-29.972 29.96 0 7.67 2.885 14.979 8.184 20.588 1.569 1.669 1.516 4.25-.141 5.809a4.14 4.14 0 0 1-2.888 1.17z"/><path d="M132.351 171.044c-1.764 0-3.438-1.198-3.942-2.952a37.935 37.935 0 0 1-1.544-10.714c0-21.089 17.114-38.188 38.195-38.188 5.901 0 11.438 1.247 16.681 3.784 2.056 1.014 2.89 3.52 1.897 5.571a4.089 4.089 0 0 1-5.507 1.887c-4.078-1.989-8.476-3-13.069-3-16.504 0-29.942 13.427-29.942 29.949 0 2.875.44 5.647 1.188 8.369.648 2.214-.589 4.536-2.783 5.117-.37.151-.795.177-1.174.177z"/></g><path fill="#0594cb" fill-rule="nonzero" d="M298.4 97.925c-18.877 0-34.102 15.217-34.102 34.097v247.923c0 15.58 10.419 28.71 24.719 32.765 0 0 .028.031.069 0 1.014.282 2.063.486 3.223.709 1.19.266 2.486.422 3.901.484.681.143 1.472.143 2.186.143 18.092 0 32.233-13.448 33.894-30.666v-.038c4.774 2.56 10.376 4.093 16.159 4.093 18.798 0 34.102-15.265 34.102-34.155 0-3.996-.822-8.036-2.071-11.604.694 0 1.375.036 2.071.036 18.775 0 34.071-15.222 34.071-34.094 0-8.351-3.016-15.877-7.951-21.837 10.532-5.783 17.61-16.97 17.61-29.798a33.957 33.957 0 0 0-21.253-31.539c5.786-6.121 9.347-14.39 9.347-23.452 0-18.783-15.306-34.066-34.094-34.066h-.602c.85-2.944 1.334-6.272 1.334-9.551 0-18.775-15.309-34.063-34.094-34.063-5.115 0-10.537 1.219-14.909 3.246-2.591-16.242-16.699-28.633-33.61-28.633z"/><g fill="#0083c0" fill-rule="nonzero"><path d="M336.608 132.019c0 21.102-17.19 38.262-38.218 38.262a4.185 4.185 0 0 1-4.191-4.191c0-2.26 1.869-4.111 4.191-4.111 16.522 0 29.949-13.44 29.949-29.96 0-16.53-13.427-29.975-29.949-29.975-16.515 0-29.957 13.445-29.957 29.975v247.964c0 16.527 13.443 29.973 29.957 29.973 16.522 0 29.949-13.445 29.949-29.973 0-16.52-13.427-29.96-29.949-29.96-2.319 0-4.191-1.851-4.191-4.109a4.185 4.185 0 0 1 4.191-4.193c21.028 0 38.218 17.157 38.218 38.262 0 21.094-17.19 38.216-38.218 38.216-21.105 0-38.267-17.121-38.267-38.216V132.019c0-21.097 17.162-38.218 38.267-38.218 21.028 0 38.218 17.121 38.218 38.218z"/><path d="M348.435 391.578c21.053 0 38.218-17.18 38.218-38.287 0-4.452-.727-8.868-2.266-13.038-.809-2.166-3.172-3.308-5.35-2.506-2.125.735-3.259 3.121-2.432 5.297 1.172 3.277 1.746 6.781 1.746 10.245 0 16.525-13.376 29.978-29.916 29.978-5 0-9.843-1.206-14.141-3.551-2.03-1.083-4.559-.346-5.67 1.672-1.078 2.038-.351 4.547 1.664 5.609a38.26 38.26 0 0 0 18.147 4.581z"/><path d="M382.539 345.805c21.107 0 38.193-17.101 38.193-38.188 0-8.901-3.11-17.579-8.868-24.492-1.421-1.741-4.078-1.961-5.804-.509-1.748 1.477-2.017 4.081-.53 5.801 4.477 5.404 6.976 12.211 6.976 19.203 0 16.515-13.455 29.96-29.967 29.96-.625 0-1.18 0-1.736-.115-15.839-.883-28.234-14.011-28.234-29.844 0-2.266-1.853-4.116-4.132-4.116-2.312 0-4.163 1.853-4.163 4.116 0 20.227 15.805 36.961 35.945 38.141.68.025 1.512.043 2.32.043z"/><path d="M297.75 311.734c2.342 0 4.188-1.861 4.188-4.116 0-11.717 9.459-21.176 21.176-21.176 11.689 0 21.161 9.459 21.161 21.176 0 2.258 1.851 4.116 4.163 4.116 2.281 0 4.132-1.861 4.132-4.116 0-16.233-13.24-29.476-29.455-29.476-16.241 0-29.461 13.243-29.461 29.476 0 2.257 1.846 4.116 4.096 4.116zm94.477-17.536c21.015 0 38.188-17.119 38.188-38.2 0-21.117-17.173-38.277-38.188-38.277-21.117 0-38.29 17.16-38.29 38.277 0 2.243 1.861 4.119 4.142 4.119 2.294 0 4.178-1.876 4.178-4.119 0-16.532 13.437-29.97 29.97-29.97 16.504 0 29.891 13.437 29.891 29.97 0 16.515-13.386 29.942-29.891 29.942-2.335 0-4.196 1.866-4.196 4.139 0 2.314 1.861 4.119 4.196 4.119z"/><path d="M405.029 228.559c1.078 0 2.204-.461 3.034-1.329 6.702-7.122 10.429-16.412 10.429-26.235 0-21.107-17.18-38.211-38.264-38.211-.246 0-.563 0-.87.008-18.13.261-33.718 12.357-35.958 28.116-1.533 10.806-8.684 21.714-21.187 21.714-2.327 0-4.16 1.864-4.16 4.183 0 2.253 1.833 4.122 4.16 4.122 15.153 0 26.965-11.61 29.381-28.849 1.853-12.897 15.764-20.844 28.106-21.038l.53-.008c16.504 0 29.96 13.44 29.96 29.96 0 7.67-2.898 14.979-8.187 20.588-1.562 1.669-1.51 4.25.164 5.809a4.047 4.047 0 0 0 2.862 1.17z"/><path d="M379.665 171.044c1.748 0 3.42-1.198 3.93-2.952a38.22 38.22 0 0 0 1.539-10.714c0-21.089-17.108-38.188-38.203-38.188-5.893 0-11.438 1.247-16.666 3.784-2.056 1.014-2.9 3.52-1.905 5.571a4.082 4.082 0 0 0 5.504 1.887c4.081-1.989 8.471-3 13.066-3 16.504 0 29.947 13.427 29.947 29.949 0 2.875-.44 5.647-1.183 8.369-.658 2.214.581 4.536 2.78 5.117.361.151.799.177 1.191.177z"/></g><path fill="#353f49" d="M252.236 0h7.511v28.063h-7.511z"/><path fill="#353f49" fill-rule="nonzero" d="M199.072 6.387l7.383-1.587 5.816 27.482-7.347 1.548-5.852-27.443zm-50.639 17.275l6.873-3.057 11.438 25.641-6.901 3.06-11.41-25.644zm-45.934 27.423l6.054-4.416 16.509 22.725-6.085 4.416-16.478-22.725zM63.233 87.501l5.028-5.594 20.862 18.778-5.044 5.596-20.846-18.78zm-30.83 43.745l3.761-6.507 24.312 14.031-3.76 6.564-24.313-14.088zm-21.038 49.231l2.317-7.152 26.685 8.663-2.309 7.17-26.693-8.681zM1.007 232.996l.773-7.521 27.902 2.967-.776 7.47-27.899-2.916zm0 46.013l27.899-2.913.776 7.47-27.902 2.959-.773-7.516zm10.358 52.529l26.693-8.655 2.309 7.132-26.685 8.67-2.317-7.147z"/><path fill="#353f49" d="M32.4 380.768l24.312-14.033 3.762 6.52-24.312 14.032zm30.833 43.759l20.855-18.786 5.035 5.59-20.854 18.786z"/><path fill="#353f49" fill-rule="nonzero" d="M102.499 460.913l16.486-22.7 6.077 4.396-16.489 22.722-6.074-4.418zm45.934 27.433l11.41-25.634 6.901 3.062-11.438 25.638-6.873-3.066zm50.639 17.323l5.852-27.481 7.347 1.587-5.816 27.422-7.383-1.528z"/><path fill="#353f49" d="M252.236 483.942h7.511v28.055h-7.511z"/><path fill="#353f49" fill-rule="nonzero" d="M299.677 479.775l7.383-1.587 5.865 27.481-7.38 1.528-5.868-27.422zm45.625-14.001l6.845-3.062 11.418 25.634-6.887 3.066-11.376-25.638zm41.625-23.165l6.083-4.396 16.535 22.7-6.118 4.418-16.5-22.722z"/><path fill="#353f49" d="M422.872 411.34l5.029-5.584 20.85 18.777-5.029 5.583z"/><path fill="#353f49" fill-rule="nonzero" d="M451.521 373.248l3.746-6.5 24.325 14.011-3.766 6.513-24.305-14.024zm20.101-43.233l2.317-7.122 26.693 8.645-2.324 7.147-26.686-8.67zm10.688-46.431l.773-7.468 27.907 2.893-.771 7.516-27.909-2.941zm0-55.14l27.899-2.969.781 7.521-27.899 2.923-.781-7.475zm-10.688-46.451l26.686-8.668 2.324 7.152-26.672 8.681-2.338-7.165zm-20.093-43.21l24.297-14.029 3.766 6.507-24.297 14.073-3.766-6.551zm-28.634-38.098l20.846-18.778 5.015 5.594-20.838 18.78-5.023-5.596zm-35.942-31.291l16.474-22.715 6.118 4.419-16.507 22.712-6.085-4.416zm-41.651-23.155l11.376-25.618 6.887 3.041-11.395 25.636-6.868-3.059zm-45.563-13.957l5.806-27.469 7.38 1.574-5.854 27.443-7.332-1.548z"/></svg>