<svg xmlns="http://www.w3.org/2000/svg" fill-rule="evenodd" stroke-linejoin="round" stroke-miterlimit="1.414" clip-rule="evenodd" viewBox="0 0 40 40"><path fill-rule="nonzero" d="M3.313 0A.314.314 0 0 0 3 .313V20.02h32.534V10.01h-9.698a.314.314 0 0 1-.312-.313V0H3.313zm23.462 0v8.76h8.76L26.774 0zM14.887 23.854c-.954 0-1.736.235-2.346.664-.605.427-.9.965-.9 1.643 0 .506.124.949.392 1.29.27.34.717.583 1.33.782.268.088.557.177.861.236.307.055.587.13.861.195.26.061.453.156.587.274a.474.474 0 0 1 .195.391c0 .173-.022.303-.117.392a1.145 1.145 0 0 1-.352.235c-.118.045-.284.06-.47.08-.184.02-.316.038-.43.038-.443 0-.926-.069-1.407-.235-.48-.167-.903-.433-1.29-.744h-.196v1.76c.39.162.805.284 1.252.391.449.104.96.157 1.564.157 1.042 0 1.857-.218 2.464-.665.609-.449.938-1.003.938-1.72 0-.502-.163-.939-.43-1.251-.264-.317-.655-.561-1.213-.744a7.197 7.197 0 0 0-.782-.195c-.244-.052-.514-.101-.782-.156-.408-.085-.675-.212-.82-.313a.5.5 0 0 1-.236-.43c0-.128.065-.255.156-.352a.722.722 0 0 1 .313-.195c.144-.06.277-.098.43-.118.157-.023.313-.039.47-.039.443 0 .906.075 1.33.235a3.68 3.68 0 0 1 1.056.587h.195v-1.681a6.435 6.435 0 0 0-1.212-.352 6.981 6.981 0 0 0-1.408-.157l-.003-.003zm7.547 0c-1.17 0-2.112.335-2.777 1.017-.664.678-.977 1.607-.977 2.777 0 1.16.313 2.092.977 2.776.665.681 1.607 1.018 2.777 1.018 1.173 0 2.072-.336 2.738-1.018.664-.684 1.016-1.616 1.017-2.776 0-1.17-.349-2.099-1.017-2.777-.668-.68-1.57-1.016-2.738-1.017zm-15.759.156v1.33h1.682v2.895c0 .296-.029.55-.039.743-.01.189-.042.349-.118.508a.831.831 0 0 1-.391.392c-.183.09-.44.156-.782.156-.264 0-.496-.029-.665-.079a8.244 8.244 0 0 1-.469-.156h-.195v1.446c.225.045.485.095.782.118.296.026.642.039.977.039.496 0 .877-.045 1.213-.157.335-.114.622-.303.86-.508.226-.193.395-.427.509-.704a2.4 2.4 0 0 0 .195-.9V24.01H6.675zm20.92 0v7.274h1.721v-5.005l3.09 5.005h1.8V24.01h-1.721v4.146l-2.62-4.146h-2.27zm-5.16 1.213c.233 0 .448.028.664.117.217.088.42.236.586.43.163.19.29.437.392.744.101.307.156.697.156 1.134 0 .408-.028.753-.117 1.056-.088.3-.248.56-.43.782a1.57 1.57 0 0 1-.587.43 1.669 1.669 0 0 1-.665.157c-.241 0-.485-.065-.704-.157-.218-.091-.385-.237-.548-.43a2.285 2.285 0 0 1-.43-.743c-.099-.307-.119-.662-.119-1.095 0-.424.056-.815.157-1.134.104-.323.228-.56.392-.743.176-.195.377-.346.586-.43a1.72 1.72 0 0 1 .665-.118h.001zM3 35.038v4.694c0 .172.14.312.313.312H35.22c.173 0 .313-.14.313-.312v-4.694H3z"/></svg>