<svg xmlns="http://www.w3.org/2000/svg" viewBox="0 0 100 100"><path style="text-indent:0;text-align:start;line-height:normal;text-transform:none;block-progression:tb;marker:none;-inkscape-font-specification:Sans" d="M45 6C23.485 6 6 23.485 6 45s17.485 39 39 39a38.782 38.782 0 0 0 19.781-5.406l2.313 7.937c.4 1.307 2.336 1.8 3.312.844L74 83.781l9.594 9.625c.363.368.89.594 1.406.594a2.03 2.03 0 0 0 1.438-.594l6.968-7.031c.354-.358.594-.87.594-1.375 0-.535-.216-1.056-.594-1.438l-9.562-9.593 3.594-3.594c.985-.982.464-2.97-.876-3.344l-7.906-2.281C82.063 58.955 84 52.195 84 45 84 23.485 66.515 6 45 6zm-2 4.281v14.281c-4.09.11-8.02.513-11.688 1.22.702-2.207 1.502-4.253 2.407-6.063 2.638-5.277 5.93-8.507 9.281-9.438zm4 0c3.35.93 6.643 4.161 9.281 9.438.905 1.81 1.705 3.856 2.407 6.062-3.668-.706-7.599-1.11-11.688-1.218zm-12.813 1.406c-1.522 1.771-2.881 3.89-4.062 6.25-1.316 2.632-2.46 5.607-3.344 8.844-3.237.883-6.212 2.028-8.843 3.344-2.362 1.18-4.48 2.542-6.25 4.063 3.446-10.638 11.862-19.054 22.5-22.5zm21.626 0c10.656 3.453 19.064 11.899 22.5 22.563-1.772-1.54-3.872-2.936-6.25-4.125-2.632-1.316-5.607-2.46-8.844-3.344-.883-3.237-2.028-6.212-3.344-8.843-1.184-2.369-2.533-4.483-4.063-6.25zM43 28.532V43H28.531c.136-4.57.728-8.907 1.625-12.844A67.078 67.078 0 0 1 43 28.531zm4 0c4.57.136 8.907.728 12.844 1.625A67.077 67.077 0 0 1 61.469 43H47zm-21.219 2.782c-.706 3.667-1.11 7.598-1.218 11.687H10.28c.93-3.35 4.161-6.643 9.438-9.281 1.81-.905 3.856-1.705 6.062-2.407zm38.438 0c2.206.7 4.252 1.5 6.062 2.406 5.277 2.638 8.507 5.93 9.438 9.281H65.438c-.11-4.09-.513-8.02-1.22-11.688zM10.28 47h14.281c.11 4.09.513 8.02 1.22 11.688-2.207-.702-4.253-1.502-6.063-2.407-5.277-2.638-8.507-5.93-9.438-9.281zm18.25 0H43v14.469a67.077 67.077 0 0 1-12.844-1.625A67.077 67.077 0 0 1 28.531 47zM47 47h14.469a67.077 67.077 0 0 1-1.625 12.844A67.077 67.077 0 0 1 47 61.469zm18.438 0h14.28c-.93 3.35-4.16 6.643-9.437 9.281-1.81.905-3.856 1.705-6.062 2.407.706-3.668 1.11-7.599 1.219-11.688zm12.874 8.781a34.958 34.958 0 0 1-3.656 7.782l-6.625-1.907a45.391 45.391 0 0 0 4.031-1.781c2.372-1.186 4.482-2.56 6.25-4.094zm-66.624.032c1.77 1.52 3.89 2.882 6.25 4.062 2.631 1.316 5.606 2.46 8.843 3.344.883 3.237 2.028 6.212 3.344 8.843 1.185 2.37 2.533 4.483 4.063 6.25-10.638-3.446-19.054-11.862-22.5-22.5zm19.624 8.406c3.668.706 7.599 1.11 11.688 1.219v14.28c-3.35-.93-6.643-4.16-9.281-9.437-.905-1.81-1.705-3.856-2.407-6.062zm27.375 0c-.7 2.206-1.5 4.252-2.406 6.062-2.638 5.277-5.93 8.507-9.281 9.438V65.438c4.09-.11 8.02-.513 11.688-1.22zm6.25.687l17.282 5.031-2.625 2.626c-.75.741-.75 2.102 0 2.843l9.594 9.563L85 89.156l-9.594-9.594c-.74-.73-2.073-.73-2.812 0L70 82.156zM61.657 68l1.937 6.625a34.808 34.808 0 0 1-7.782 3.656c1.524-1.764 2.882-3.857 4.063-6.219A45.475 45.475 0 0 0 61.656 68z" color="#000" font-family="Sans" font-weight="400" overflow="visible"/></svg>