<svg xmlns="http://www.w3.org/2000/svg" width="256" height="256" viewBox="0 0 256 256"><title>icon</title><circle cx="128" cy="128" r="124" fill="#c2bfbc"/><path fill="#333" stroke="#333" stroke-linecap="round" stroke-linejoin="round" stroke-width="3" d="M56.4 138.1c4 0 7.3 3.1 7.3 7.7a7.3 7.3 0 1 1-14.6 0c0-4.6 3.2-7.7 7.3-7.7zM78 164.9c6.1 0 9.8-4 12-9.4l1.3-3.2-20.4-43.8h7.5L89 132.7c1.7 3.9 3.6 8.5 5.4 12.7h.4l4.7-12.7 9.5-24.2h7l-19.2 47.3c-3.2 8.6-8.6 15.2-18.5 15.2a18.4 18.4 0 0 1-5.8-.9l1.5-5.8a14 14 0 0 0 4 .6zm46.5-56.4h5.8l.6 5.8h.3c2.2-4 4.9-6.8 9.8-6.8s7.2 2.5 8.3 7.6c2.6-4.6 5.5-7.6 10.3-7.6s9.5 4.8 9.5 13.5v31.3H162v-30.8c0-5.1-1.5-7.7-4.8-7.7s-5.2 2.2-7.5 6.7v31.7h-5.9v-30.7c0-5.1-1.7-7.7-5-7.7s-5 2.2-7.3 6.7v31.7h-7.1zm47.4-20.4h22.3V138c0 6.4 3.3 9.1 8.5 9.1a19.9 19.9 0 0 0 8.3-2.1l1.9 5.6c-4 1.4-7 2.6-11.8 2.6-9.3 0-14.3-5.4-14.3-15.7V94.2h-14.9z"/></svg>