<svg xmlns="http://www.w3.org/2000/svg" width="933.333" height="933.333" version="1.0" viewBox="0 0 700 700"><path d="M320.5 15.5c-15.9 3.6-26.5 8.2-42.7 18.2-23.6 14.6-52.6 32.6-54.3 33.6-1.1.7-6 3.7-11 6.8-4.9 3-23.2 14.2-40.5 24.9-17.3 10.6-33.1 20.3-35 21.5-1.9 1.3-11.1 7-20.5 12.8-27.8 17.2-40.7 30-53.2 52.7-6.6 12-12.5 30.9-14 44.9-.9 8.4-.9 238.6 0 246.6 4.1 37.9 27.3 73.4 60.2 92.1 5.8 3.3 59.9 34.9 70.9 41.4 1.7 1.1 4.2 2.5 5.6 3.3 1.4.7 26.6 15.5 56 32.7 29.4 17.2 56.3 32.6 59.7 34.2 20.9 9.5 44.7 11.7 67.3 6.1 11.2-2.7 19.7-6.7 45.5-21 13.8-7.7 27.3-15.2 30-16.8 4.3-2.3 12.7-7 35.5-19.7 2.5-1.4 6.2-3.5 8.4-4.7 6-3.4 66.4-37 72.6-40.4 3-1.7 9-5 13.3-7.4 4.2-2.4 9.9-5.5 12.5-7 19.1-10.5 27.1-16.3 36-25.8 15.3-16.3 25.3-37.6 27.9-59.2.4-3.2.7-64.1.7-135.3l-.1-129.5-2.3-9.5c-4.7-19.6-13.6-35.6-27.5-49.6-9.8-9.9-15.7-13.9-48-32.4-1.6-.9-7.6-4.5-13.3-7.9-5.6-3.3-10.7-6.1-11.2-6.1-.6 0-1-.5-1-1 0-.6-.4-1-1-1-.5 0-5.3-2.6-10.7-5.9-5.4-3.2-23.5-13.8-40.3-23.6-16.8-9.8-31.6-18.6-33-19.5-1.4-.9-5-3.1-8-4.7-3-1.7-16.7-9.7-30.5-17.8-26.6-15.7-35.4-20.2-46.2-23.5-18.1-5.5-40.4-6.4-57.8-2.5z"/></svg>