<svg xmlns="http://www.w3.org/2000/svg" viewBox="325 451.6 374.2 120.8"><path fill="#FFF" d="M491.4 451.6c-33.6 0-59.6 22.4-63.6 53.4 5.4 1.7 9.7 3.9 12.9 6.6 2.1-25.9 23-44.5 50.7-44.5 11.5 0 21.7 3.2 30.1 8.8.3-.6.8-1.4 2.2-1.8 5.4-1.6 10.6-1.4 15.3.4.3-.9.5-1.8.9-2.7-11.7-12.4-28.7-20.2-48.5-20.2z"/><path fill="#FBAA19" d="M491.4 455.5c-31.9 0-56.4 21.5-59.9 50.8 2.1.8 3.9 1.7 5.6 2.7 3.4-26.5 25.5-45.8 54.3-45.8 10.7 0 20.7 2.7 29 7.5.3-.1.6-.3.9-.4 3.5-1 6.9-1.3 10.2-1-10.4-8.6-24.3-13.8-40.1-13.8z"/><path fill="#14499E" d="M564.5 538.1V476h-7.8c-.1 4-1.6 7.8-4 10.3-1.3 1.3-2.7 2.3-4.1 2.8 1 2.6 2.1 5.3 2.7 8.1 1.2 4.8 1.6 6.5 1.9 10.9.3 2.2.3 4.4.3 6.5 0 12.7-3.5 25.2-9.8 35.7v5h45.4v-17.6h-24.6v.4zm49 17.6h-20.7v-79.5h20.7v79.5zm52.7-29.6H649l8.7-25.3 8.5 25.3zm5.7 15.8l5.2 13.8h22.1l-29.9-79.5h-22.5l-30.5 79.5h21.9l5.4-13.8h28.3zm-245.8-34.7c-7-2.2-7.9-2.3-8.9-2.8-3.6-1.7-5.4-3.7-5.4-6.2 0-3.9 3.9-6.9 8.8-6.9 3.4 0 6.5.9 9.7 2.7 1.8-5.6 4.4-10.9 7.6-15.5-6.7-2.8-13.8-4.4-20.7-4.4-16 0-27 10.9-27 26.8 0 6.9 2.1 12 5.9 15.5 3 2.5 6.5 4 15.5 6.7 9.7 2.8 12.4 4.9 12.4 9.2 0 4.7-4.3 7.9-10.3 8.3-5.7.4-10.9.3-17.2-5.2l-9.6 13.3c8.4 5.8 18 8.9 27.7 8.9 19.5 0 31-10.5 31-28.3.1-11.5-5.6-18.1-19.5-22.1z"/><path fill="#14499E" d="M596.7 479.9v71.8h12.9v-71.8h-12.9zm52.6 0c-1.7 4.4-24.2 62.8-27.5 71.8h13.6c1.3-3.4 5.4-13.8 5.4-13.8h33.9s3.9 10.5 5.2 13.8h13.7c-3.4-8.8-25.3-67.4-27-71.8h-17.3zm-3.9 44.9l12.4-36.2 13.8 41.4h-27.9l1.7-5.2zM560.6 542v-62.1h-1.7c-.8 3.5-2.3 6.6-4.5 9.1-.6.8-1.4 1.4-2.2 1.9.6 1.9 1.3 3.7 1.8 5.6 1.2 4.9 1.6 6.9 1.9 11.4.3 2.3.4 4.7.4 6.9 0 12.2-3.1 24-8.5 34.4v2.6h37.6V542h-24.8zm-166.4-41c0 5.7 1.6 9.8 4.7 12.5 2.2 1.8 4.9 3.2 14 5.8 8.7 2.6 15.3 5.2 15.3 12.9 0 6.7-5.6 11.6-14 12.2-5.2.4-10.6.3-16.7-3.6-1.8 2.5-3 4.1-4.8 6.6 6.9 4 14.4 6.2 22.1 6.2 17.5 0 27.2-8.7 27.2-24.4 0-8-2.8-14.2-16.8-18.4l-1.8-.5c-5.7-1.7-6.3-1.9-7.6-2.5-5.2-2.3-7.6-5.7-7.6-9.7 0-5.9 5.6-10.7 12.7-10.7 2.6 0 5 .5 7.5 1.3 1.2-2.8 2.5-5.6 4-8.3-4.9-1.6-10.1-2.5-14.9-2.5-14 .1-23.3 9.3-23.3 23.1z"/><path fill="#FBAA19" d="M346.5 517.3c1.2-6.1 5.2-9.6 12-9.6 5.8 0 10.5 3.5 11.9 9.3l-23.9.3zm43.3 11.8v-2.7c-.1-20.2-12.7-32.1-33-31.8-19.5.1-31.9 12.8-31.8 31.9.1 18.9 13.7 31 34.4 30.8 15.5-.1 25.7-7.2 29.5-21.9l-20 .1c-2.6 5.4-5.2 7-10 7-8.5.1-12.8-4.1-12.9-13.1l43.8-.3zm116.3-44s1.9-3.9 6.5-6.6c-6.2-3.1-13.4-4.9-21.2-4.9-25.2 0-44 18.2-44 42.3 0 24.2 18.9 42.4 44 42.4 25.2 0 44-18.2 44-42.4 0-10.5-3.5-19.8-9.6-27-8.8-4.7-19.7-3.8-19.7-3.8zm-14.8 53.4c-12.4 0-22.4-10-22.4-22.4 0-12.3 10-22.2 22.4-22.2s22.4 10 22.4 22.2c.1 12.3-10 22.4-22.4 22.4z"/><path fill="#FBAA19" d="M356.8 498.3c-17.3.1-28.1 10.9-27.9 28.1.1 16.8 11.9 27.2 30.5 27 12.2-.1 20-4.8 24-14.1-4.9 0-9.7.1-12.2.1-2.8 4.9-6.5 7-12.3 7-10.6.1-16.7-5.9-16.9-16.9v-.1c0-1 .4-1.9 1-2.7.8-.8 1.7-1.2 2.7-1.2 0 0 33.2-.3 39.7-.4-.3-8.1-2.8-14.9-7.5-19.5-4.6-4.8-12-7.4-21.1-7.3zm-13.3 21.6c-.8-.9-1-2.1-.9-3.2 1.4-8 7.2-12.7 15.8-12.8 7.6-.1 13.8 4.8 15.6 12.3.3 1.2 0 2.3-.6 3.4-.8.9-1.8 1.6-3 1.6l-23.9.3c-1.2-.2-2.2-.7-3-1.6zm162.6-34.8s.9-1.8 3-3.9c-5.3-2.3-11.2-3.6-17.7-3.6-22.9 0-40.1 16.5-40.1 38.4 0 22 17.2 38.5 40.1 38.5s40.1-16.5 40.1-38.5c0-12.5-5.6-23.3-14.7-30.1-5.8-1.2-10.7-.8-10.7-.8zm11.6 30.9c0 14.5-11.8 26.2-26.2 26.2s-26.2-11.8-26.2-26.2c0-14.5 11.8-26.1 26.2-26.1 14.3 0 26.2 11.8 26.2 26.1z"/><path fill="#14499E" d="M518.5 562.4c-7.9 4.1-16.9 6.3-26.9 6.3-20.2 0-37.1-9.4-46.5-24.2-.6 1.4-1.4 2.7-2.3 3.9 10.7 14.4 28.3 23.3 48.9 23.3 9.6 0 18.4-1.9 26.2-5.3.1-.6.1-1.3.4-1.9 0-.9.2-1.6.2-2.1z"/><path fill="#14499E" d="M552.9 472.6c-.6-5-.1-8 .8-9.7 0-.1-11.9-.1-14.2 15.3-5.7-3.2-11.5-3-16.3-1.6-.8.3-.6.5.1.5 3.1-.1 6.1.5 8.8 1.9-5.4-1.3-15.1-1.4-20.4 3.2-.3.1-.5.3-.5.4.5.1 4.9-.8 15 3.6 4.1 1.8 11.4 3.7 14.1-.5 2.5 5.6 4.1 10.7 5 15.5-1.8-3.1-4.1-4.5-4.8-4.8-2.7-1.6-6.5-1.6-6.5-1.6s.5 2.3 1.8 3.5c3 3 7.4 2.1 7.2 1.8 0-.8-.3-1.4-.5-1.9 2.2 2.3 3.7 8.1 4 10.9.9 10-1 18.4-3.1 24.8-3.9 10-8.5 16.9-17.3 25-2.6-3.7-7.2-4.3-7.8-2.8v.1c2.5-.3 8.4 2.3 7.9 8.4-.6 7.4-6.5 5-5.3.1.8-3.4-.6-5-1.9-6.1.6 1.3 1.6 3.1.5 6.5-2.3 7.9 7 11 8.3.9v-1.4c15.9-12.9 24.2-34.9 22.1-56-.4-4.1-.6-5.8-1.8-10.5-.9-3.6-2.2-7.2-3.7-10.6 3.8.3 9.7-5.2 8.5-14.9z"/><path fill="#14499E" d="M541.7 478.5l-.5 3.5c.5 1.2 1.2 2.6 1.2 2.6.1.1.1.4.1.5.8 0 1.7.1 1.7.1.9 0 2.5-.4 3.7-1.9 1.8-1.9 2.7-4.7 2.7-7.9 0-.8 0-1.6-.1-2.3-.3-1.6-.4-3.1-.4-4.4 0-.9.1-1.7.3-2.6-3.1 1-7.4 4-8.7 12.4zm-11.9 2.6c-3.4-.8-6.1-.8-10.3.1 2.3.6 4.8 1.4 7.4 2.6 4.1 1.8 9.4 3 11 .4 0 0 1.2-1.9 1.8-3-.9-.5-1.7-1-1.7-1-1.8-1-3.6-1.6-5.6-1.9 1.6 3.7-2.6 2.8-2.6 2.8z"/><path fill="#FBAA19" d="M491.3 489.9c13.6 0 24.8 10.3 26.1 23.5.1-.9.1-1.7.1-2.6 0-14.5-11.8-26.1-26.2-26.1-14.5 0-26.2 11.8-26.2 26.1 0 .9 0 1.8.1 2.6 1.3-13.2 12.5-23.5 26.1-23.5z"/></svg>